<?xml version="1.0" encoding="UTF-8" standalone="no"?><!DOCTYPE svg PUBLIC "-//W3C//DTD SVG 1.1//EN" "http://www.w3.org/Graphics/SVG/1.1/DTD/svg11.dtd"><svg width="100%" height="100%" viewBox="0 0 1000 800" version="1.1" xmlns="http://www.w3.org/2000/svg" xmlns:xlink="http://www.w3.org/1999/xlink" xml:space="preserve" xmlns:serif="http://www.serif.com/" style="fill-rule:evenodd;clip-rule:evenodd;stroke-linejoin:round;stroke-miterlimit:2;"><g><path d="M284.525,301.978c-13.028,-1.834 -24.834,-4.647 -35.515,-8.256c-32.215,-18.652 -57.543,-49.162 -69.46,-84.47c-7.796,-23.097 -9.782,-48.038 -6.214,-72.146c3.445,2.45 6.781,4.943 10.026,7.485c-2.655,48.74 10.645,120.306 100.603,154.887c0.387,1.63 0.56,2.5 0.56,2.5Zm-43.292,-11.099c-107.364,-42.35 -92.6,-169.394 -92.6,-169.394c6.305,3.527 12.332,7.227 18.089,11.066c-3.887,25.223 -1.975,51.393 6.277,75.583c11.8,34.588 36.621,64.61 68.234,82.745Z" style="fill:#ffcb0a;fill-rule:nonzero;"/><path d="M143.015,415.076c-0.699,-0 -1.067,-0.011 -1.067,-0.011c0,-0 0.692,-2.308 12.489,-17.191c0.994,0.02 1.99,0.03 2.984,0.03c13.364,-0 26.721,-1.785 39.603,-5.443c32.757,-9.303 62.228,-30.471 81.077,-58.877c0.219,0.095 0.331,0.148 0.331,0.148c-38.664,78.897 -124.865,81.344 -135.417,81.344Zm17.971,-25.341c1.729,-2.122 3.617,-4.422 5.673,-6.906c31.257,-1.765 72.959,-12.55 104.958,-51.513c3.407,0.988 5.673,1.917 6.483,2.268c-0.931,1.398 -1.904,2.772 -2.917,4.122c-23.21,30.905 -67.457,49.027 -104.385,51.654c-3.265,0.232 -6.539,0.357 -9.812,0.375Z" style="fill:#25b4b9;fill-rule:nonzero;"/><path d="M285.687,300.133c-0.579,-0.218 -1.149,-0.434 -1.722,-0.655c-3.61,-15.18 -25.861,-96.336 -100.603,-154.887c0.184,-3.375 0.445,-6.644 0.761,-9.78c45.965,33.878 80.606,82.468 99.476,136.494c2.34,17.783 2.088,28.828 2.088,28.828Zm-4.725,-45.252c-18.365,-51.046 -51.939,-96.138 -95.807,-128.595c2.713,-19.252 7.098,-31.858 7.098,-31.858c58.801,52.519 80.626,117.715 88.709,160.453Z" style="fill:#ce3568;fill-rule:nonzero;"/><path d="M283.965,299.478c-89.958,-34.581 -103.258,-106.147 -100.603,-154.887c74.742,58.551 96.993,139.707 100.603,154.887Z" style="fill:#cb2d27;fill-rule:nonzero;"/><path d="M158.328,383.103c11.909,-17.176 23.907,-34.451 40.69,-47.203c13.074,-9.933 29.403,-16.622 45.587,-16.622c2.446,-0 4.888,0.152 7.315,0.47c13.041,3.997 20.922,10.056 20.922,10.056c-0.407,0.509 -0.815,1.012 -1.225,1.512c-5.115,-1.483 -12.803,-3.101 -22.013,-3.101c-18.021,-0 -41.865,6.192 -63.647,31.699c-7.7,9.018 -14.054,16.578 -19.298,22.915c-2.87,0.162 -5.654,0.249 -8.331,0.274Zm-10.713,-0.22c-15.595,-0.787 -25.667,-3.339 -25.667,-3.339c0,-0 2.841,-5.075 54.94,-44.273c19.148,-14.407 37.178,-18.961 52.331,-18.961c3.466,-0 6.78,0.238 9.923,0.652c-0.33,-0.006 -0.66,-0.008 -0.99,-0.008c-9.579,-0 -19.271,2.259 -28.044,6.164c-15.703,6.992 -28.805,18.785 -40.235,31.624c-7.957,8.939 -15.225,18.451 -22.258,28.141Z" style="fill:#25b4b9;fill-rule:nonzero;"/><path d="M166.659,382.829c5.244,-6.337 11.598,-13.897 19.298,-22.915c21.782,-25.507 45.626,-31.699 63.647,-31.699c9.21,-0 16.898,1.618 22.013,3.101c-31.999,38.963 -73.701,49.748 -104.958,51.513Z" style="fill:#0c8087;fill-rule:nonzero;"/><text x="284.408px" y="331.519px" style="font-family:'BankGothicBT-Light', 'BankGothic Lt BT', sans-serif;font-stretch:semi-expanded;font-size:96px;fill:#ff0081;">EESha</text><text x="284.396px" y="374.37px" style="font-family:'BankGothicBT-Light', 'BankGothic Lt BT', sans-serif;font-stretch:semi-expanded;font-size:48px;fill:#023839;">Y<tspan x="313.974px 347.091px " y="374.37px 374.37px ">ou</tspan> are unique</text></g></svg>